<svg width="180" height="180" viewBox="0 0 180 180" fill="none" xmlns="http://www.w3.org/2000/svg">
  <rect width="180" height="180" rx="56" fill="#F0F4E8"/>
  <path d="M55 80c0-25 15-42 36-42s38 16 38 42v12H55V80Z" fill="#2A201A"/>
  <circle cx="90" cy="88" r="30" fill="#C4865B"/>
  <path d="M62 71c12-22 43-28 59 1-19-7-39-7-59-1Z" fill="#211713"/>
  <circle cx="78" cy="91" r="4" fill="#203522"/>
  <circle cx="102" cy="91" r="4" fill="#203522"/>
  <path d="M77 108c8 6 18 6 26 0" stroke="#79462F" stroke-width="5" stroke-linecap="round"/>
  <path d="M34 164c8-30 30-48 56-48s48 18 56 48H34Z" fill="#6D8E57"/>
  <path d="M72 126h36l-18 20-18-20Z" fill="#EDC4A5"/>
</svg>
